<?xml version="1.0" standalone="no"?>
<!DOCTYPE svg PUBLIC "-//W3C//DTD SVG 20010904//EN"
 "http://www.w3.org/TR/2001/REC-SVG-20010904/DTD/svg10.dtd">
<svg version="1.0" xmlns="http://www.w3.org/2000/svg"
 width="1040.000000pt" height="1040.000000pt" viewBox="0 0 1040.000000 1040.000000"
 preserveAspectRatio="xMidYMid meet">
<metadata>
Created by potrace 1.14, written by Peter Selinger 2001-2017
</metadata>
<g transform="translate(0.000000,1040.000000) scale(0.100000,-0.100000)"
fill="#000000" stroke="none">
<path d="M3061 9193 c-51 -10 -114 -61 -141 -113 -42 -83 1 -183 98 -228 l57
-26 2130 0 c2128 0 2130 0 2175 21 159 73 167 245 15 326 l-40 22 -2135 1
c-1174 1 -2146 -1 -2159 -3z"/>
<path d="M3417 8554 c-1 -1 -317 -5 -702 -8 -1143 -11 -1146 -11 -1280 -46
-339 -90 -608 -363 -690 -705 -17 -69 -20 -107 -19 -230 0 -103 5 -148 24
-215 62 -229 205 -426 401 -553 159 -103 317 -150 509 -151 150 -1 202 6 312
40 406 127 678 499 671 919 -2 122 -17 154 -72 156 -168 5 -907 2 -941 -5
-143 -27 -203 -193 -109 -300 57 -65 70 -68 370 -68 198 0 269 -3 269 -12 0
-19 -70 -118 -109 -154 -84 -78 -157 -116 -263 -138 -200 -42 -413 43 -528
211 -30 43 -67 121 -77 160 -12 50 -14 176 -3 228 29 139 137 282 262 346 131
66 -184 61 3763 61 3495 0 3592 -1 3652 -19 75 -23 142 -54 174 -82 58 -48 94
-88 125 -135 213 -331 -23 -770 -421 -779 -183 -5 -352 82 -447 229 -21 32
-38 65 -38 71 0 9 64 12 264 13 247 0 266 1 304 21 94 48 130 156 84 248 -25
47 -47 68 -97 89 -35 15 -93 17 -503 17 l-463 0 -25 -24 c-33 -33 -41 -69 -39
-164 4 -152 32 -270 96 -400 85 -173 205 -298 399 -417 44 -27 204 -86 250
-93 24 -4 49 -9 54 -12 20 -13 254 -12 326 1 569 102 907 654 744 1215 -102
351 -447 617 -854 657 -25 3 -454 6 -955 8 -500 2 -1380 7 -1955 11 -948 7
-2459 12 -2463 9z"/>
<path d="M6372 7750 l-204 -5 -24 -28 c-17 -19 -24 -41 -25 -70 -5 -245 0
-6302 5 -6329 10 -53 65 -105 119 -113 72 -10 40 -24 422 190 268 150 788 441
840 470 233 130 301 168 310 175 6 4 46 27 90 51 44 23 96 52 116 63 56 32
228 128 279 156 173 96 220 138 243 217 9 31 12 159 12 480 -1 400 -2 443 -20
498 -63 200 -259 340 -474 337 -166 -3 -344 -113 -414 -257 -51 -103 -54 -132
-52 -489 3 -352 1 -372 -46 -441 -22 -32 -91 -78 -232 -155 -85 -46 -112 -52
-158 -33 -79 31 -72 -228 -73 2648 -1 2741 1 2599 -49 2627 -24 13 -316 17
-665 8z"/>
<path d="M2930 7734 c-100 -43 -150 -122 -150 -239 0 -85 21 -136 77 -186 54
-49 96 -61 214 -62 l99 -1 0 -2326 c0 -1856 3 -2332 13 -2360 31 -84 78 -140
152 -180 22 -12 56 -30 75 -42 19 -11 136 -76 260 -146 124 -69 246 -138 273
-154 26 -15 49 -28 52 -28 2 0 30 -15 62 -34 32 -18 78 -45 103 -58 72 -40
135 -75 300 -168 85 -48 178 -100 205 -115 51 -28 160 -89 250 -140 114 -64
203 -114 245 -137 25 -14 88 -49 140 -79 84 -48 101 -54 152 -54 63 0 97 19
134 73 l22 32 0 3056 c0 1861 -4 3071 -10 3093 -31 122 -119 215 -239 252 -59
18 -106 19 -1228 19 -1010 -1 -1171 -3 -1201 -16z m1548 -528 c66 -33 110 -79
141 -146 l25 -55 2 -1055 c6 -2308 5 -3406 -2 -3425 -12 -32 -51 -64 -89 -71
-38 -7 -78 9 -203 83 -40 24 -75 43 -77 43 -19 0 -108 68 -120 90 -13 25 -15
318 -15 2259 0 1626 3 2237 11 2255 21 45 62 57 176 52 83 -4 110 -9 151 -30z"/>
</g>
</svg>
